name rise35.5848peak51.9257fall54.8793.mot
datacolumns 19
datarows 23
range 9.68996000000000 9.72663800000000
endheader
time	ground_force1_vx	ground_force1_vy	ground_force1_vz	ground_force1_px	ground_force1_py	ground_force1_pz	ground_force2_vx	ground_force2_vy	ground_force2_vz	ground_force2_px	ground_force2_py	ground_force2_pz	ground_torque1_x	ground_torque1_y	ground_torque1_z	ground_torque2_x	ground_torque2_y	ground_torque2_z	
9.68996000000000	-8.82688000000000	40.20260500000000	-14.78427300000000	0.26905100000000	0.00000000000000	0.05115900000000	-57.41750100000000	795.21843600000000	-36.35818300000000	0.07506000000000	0.00000000000000	-0.09043300000000	0.00000000000000	-8.79437600000000	0.00000000000000	0.00000000000000	-13.68679200000000	0.00000000000000	
9.69164000000000	-9.69585000000000	46.96140100000000	-16.65466800000000	0.27275400000000	0.00000000000000	0.05184900000000	-58.14612100000000	792.81607899999995	-36.10667800000000	0.07418200000000	0.00000000000000	-0.09047500000000	0.00000000000000	-9.97273600000000	0.00000000000000	0.00000000000000	-13.75014600000000	0.00000000000000	
9.69329100000000	-10.40369600000000	53.76526300000000	-18.36786100000000	0.27630500000000	0.00000000000000	0.05248400000000	-58.89319300000000	790.32599800000003	-35.84353800000000	0.07330900000000	0.00000000000000	-0.09051500000000	0.00000000000000	-11.07063200000000	0.00000000000000	0.00000000000000	-13.81847400000000	0.00000000000000	
9.69495800000000	-10.92715800000000	60.52399700000000	-19.88603400000000	0.27972300000000	0.00000000000000	0.05307100000000	-59.65811900000000	787.74439299999995	-35.56814200000000	0.07244400000000	0.00000000000000	-0.09055300000000	0.00000000000000	-12.06375600000000	0.00000000000000	0.00000000000000	-13.89163900000000	0.00000000000000	
9.69663700000000	-11.25270600000000	67.17069400000000	-21.18443500000000	0.28302500000000	0.00000000000000	0.05361500000000	-60.44019600000000	785.06734300000005	-35.27987000000000	0.07158700000000	0.00000000000000	-0.09058800000000	0.00000000000000	-12.93532700000000	0.00000000000000	0.00000000000000	-13.96948400000000	0.00000000000000	
9.69829000000000	-11.37638600000000	73.66365700000000	-22.25153600000000	0.28622100000000	0.00000000000000	0.05412400000000	-61.23861500000000	782.29082100000005	-34.97810900000000	0.07073800000000	0.00000000000000	-0.09062100000000	0.00000000000000	-13.67638100000000	0.00000000000000	0.00000000000000	-14.05183100000000	0.00000000000000	
9.69997000000000	-11.30290500000000	79.98592300000000	-23.08809000000000	0.28932100000000	0.00000000000000	0.05459900000000	-62.05245900000000	779.41071199999999	-34.66225200000000	0.06990000000000	0.00000000000000	-0.09065000000000	0.00000000000000	-14.28538500000000	0.00000000000000	0.00000000000000	-14.13847800000000	0.00000000000000	
9.70162300000000	-11.04416300000000	86.14283900000000	-23.70533700000000	0.29233200000000	0.00000000000000	0.05504700000000	-62.88070200000000	776.42282999999998	-34.33170500000000	0.06907300000000	0.00000000000000	-0.09067700000000	0.00000000000000	-14.76729600000000	0.00000000000000	0.00000000000000	-14.22920500000000	0.00000000000000	
9.70330400000000	-10.61744500000000	92.15820800000000	-24.12266400000000	0.29526200000000	0.00000000000000	0.05546800000000	-63.72221000000000	773.32292800000005	-33.98589000000000	0.06825700000000	0.00000000000000	-0.09070000000000	0.00000000000000	-15.13225300000000	0.00000000000000	0.00000000000000	-14.32377000000000	0.00000000000000	
9.70497600000000	-10.04348500000000	98.06958299999999	-24.36499200000000	0.29811300000000	0.00000000000000	0.05586700000000	-64.57574000000000	770.10672399999999	-33.62424900000000	0.06745500000000	0.00000000000000	-0.09072000000000	0.00000000000000	-15.39406600000000	0.00000000000000	0.00000000000000	-14.42190800000000	0.00000000000000	
9.70663600000000	-9.34458200000000	103.92325599999999	-24.46016800000000	0.30089000000000	0.00000000000000	0.05624500000000	-65.43993900000000	766.76991299999997	-33.24624600000000	0.06666500000000	0.00000000000000	-0.09073600000000	0.00000000000000	-15.56865200000000	0.00000000000000	0.00000000000000	-14.52333500000000	0.00000000000000	
9.70829900000000	-8.54290900000000	109.76938100000000	-24.43657100000000	0.30359600000000	0.00000000000000	0.05660400000000	-66.31334699999999	763.30818399999998	-32.85137400000000	0.06589100000000	0.00000000000000	-0.09074900000000	0.00000000000000	-15.67256700000000	0.00000000000000	0.00000000000000	-14.62774400000000	0.00000000000000	
9.70996200000000	-7.65912000000000	115.65761900000000	-24.32107600000000	0.30623200000000	0.00000000000000	0.05694700000000	-67.19439700000000	759.71724400000005	-32.43916000000000	0.06513100000000	0.00000000000000	-0.09075800000000	0.00000000000000	-15.72173000000000	0.00000000000000	0.00000000000000	-14.73481000000000	0.00000000000000	
9.71164000000000	-6.71131600000000	121.63354300000000	-24.13748600000000	0.30880100000000	0.00000000000000	0.05727400000000	-68.08141800000000	755.99283000000003	-32.00916300000000	0.06438700000000	0.00000000000000	-0.09076300000000	0.00000000000000	-15.73040800000000	0.00000000000000	0.00000000000000	-14.84418600000000	0.00000000000000	
9.71329500000000	-5.71437400000000	127.73595100000000	-23.90546400000000	0.31130200000000	0.00000000000000	0.05758700000000	-68.97263500000000	752.13073399999996	-31.56098400000000	0.06365900000000	0.00000000000000	-0.09076400000000	0.00000000000000	-15.71049600000000	0.00000000000000	0.00000000000000	-14.95550600000000	0.00000000000000	
9.71495600000000	-4.67964700000000	133.99513800000000	-23.63996800000000	0.31373800000000	0.00000000000000	0.05788700000000	-69.86617400000000	748.12681599999996	-31.09426700000000	0.06294800000000	0.00000000000000	-0.09076100000000	0.00000000000000	-15.67109600000000	0.00000000000000	0.00000000000000	-15.06838600000000	0.00000000000000	
9.71663200000000	-3.61497200000000	140.43207500000000	-23.35112300000000	0.31610800000000	0.00000000000000	0.05817500000000	-70.76006300000000	743.97702900000002	-30.60870200000000	0.06225300000000	0.00000000000000	-0.09075300000000	0.00000000000000	-15.61838800000000	0.00000000000000	0.00000000000000	-15.18242100000000	0.00000000000000	
9.71829400000000	-2.52494000000000	147.05840300000000	-23.04449100000000	0.31841200000000	0.00000000000000	0.05845200000000	-71.65223899999999	739.67743499999995	-30.10403100000000	0.06157600000000	0.00000000000000	-0.09074100000000	0.00000000000000	-15.55572800000000	0.00000000000000	0.00000000000000	-15.29719100000000	0.00000000000000	
9.71995600000000	-1.41135500000000	153.87708200000000	-22.72160900000000	0.32065000000000	0.00000000000000	0.05871800000000	-72.54054900000000	735.22422300000005	-29.58004800000000	0.06091600000000	0.00000000000000	-0.09072500000000	0.00000000000000	-15.48395100000000	0.00000000000000	0.00000000000000	-15.41225900000000	0.00000000000000	
9.72164000000000	-0.27382300000000	160.88354100000001	-22.38074600000000	0.32282100000000	0.00000000000000	0.05897500000000	-73.42275600000001	730.61373500000002	-29.03660800000000	0.06027400000000	0.00000000000000	-0.09070400000000	0.00000000000000	-15.40180500000000	0.00000000000000	0.00000000000000	-15.52717200000000	0.00000000000000	
9.72329000000000	0.88961300000000	168.06713300000001	-22.01774100000000	0.32492600000000	0.00000000000000	0.05922400000000	-74.29654600000001	725.84248000000002	-28.47362100000000	0.05964900000000	0.00000000000000	-0.09067900000000	0.00000000000000	-15.30646000000000	0.00000000000000	0.00000000000000	-15.64146200000000	0.00000000000000	
9.72495600000000	2.08183700000000	175.41274799999999	-21.62688400000000	0.32696300000000	0.00000000000000	0.05946300000000	-75.15953100000000	720.90715699999998	-27.89106300000000	0.05904200000000	0.00000000000000	-0.09064900000000	0.00000000000000	-15.19405000000000	0.00000000000000	0.00000000000000	-15.75464900000000	0.00000000000000	
9.72663800000000	3.30606900000000	182.90241900000001	-21.20173300000000	0.32893200000000	0.00000000000000	0.05969500000000	-76.00925900000000	715.80467699999997	-27.28897100000000	0.05845300000000	0.00000000000000	-0.09061400000000	0.00000000000000	-15.06019500000000	0.00000000000000	0.00000000000000	-15.86624100000000	0.00000000000000	
